<?xml version="1.0" encoding="UTF-8"?>
<svg id="Layer_1" data-name="Layer 1" xmlns="http://www.w3.org/2000/svg" viewBox="0 0 156.03 48.85">
  <defs>
    <style>
      .cls-1 {
        fill: #2a696b;
      }

      .cls-2 {
        fill: #2d322c;
      }
    </style>
  </defs>
  <circle class="cls-1" cx="33.62" cy="44.05" r="4.73"/>
  <circle class="cls-1" cx="81.01" cy="15.46" r="4.73"/>
  <g>
    <circle class="cls-1" cx="146.21" cy="15.46" r="4.73"/>
    <circle class="cls-1" cx="146.21" cy="4.79" r="4.73"/>
  </g>
  <g>
    <path class="cls-2" d="m54.06,21.62c-4.12,0-7.54,3.03-8.18,6.98,0,.03-.02.04-.02.07,0,.02-.01.1-.02.21-.02.19-.04.39-.05.59-.03.37-.07.79-.1,1.04-.13,1.01-.99,1.79-2.03,1.79-1.13,0-2.05-.91-2.06-2.04,0,0,0-.01,0-.02v-8.9s0,0,0,0v-1.51c0-.39-.4-.66-.76-.5l-4.59,1.95c-.33.14-.54.46-.54.82v7.78s0,.04,0,.06v.3c0,1.13-.92,2.06-2.06,2.06s-2.06-.92-2.06-2.06V6.24s0,0,0,0v-1.33c0-.39-.4-.66-.76-.5l-4.6,1.95c-.33.14-.54.46-.54.82v.58s0,0,0,0l.02,21.6c0,1.63-1.32,2.95-2.95,2.95h-3.25c-1.52,0-2.76-1.16-2.92-2.63v-9.83c.04-.33-.22-.68-.59-.59s-4.72,1.95-4.72,1.95c-.38.16-.58.4-.58.73v.04c-.76-.23-1.56-.36-2.4-.36-4.57,0-8.29,3.72-8.29,8.29s3.72,8.29,8.29,8.29c.07,0,.13,0,.2-.01,2.07.03,3.97-.72,5.4-1.99,1.53,1.25,3.48,2,5.61,2h3.25c2.16,0,4.13-.77,5.67-2.06,1.2,1.11,2.72,1.85,4.44,2.02,2.22.22,4.28-.49,5.84-1.78,1.15.97,2.58,1.63,4.17,1.78,2.26.22,4.35-.52,5.93-1.85,1.43,1.18,3.27,1.89,5.27,1.89,4.57,0,8.29-3.72,8.29-8.29s-3.72-8.29-8.29-8.29Zm-45.77,10.69c-1.32,0-2.4-1.07-2.4-2.4s1.07-2.4,2.4-2.4,2.35,1.04,2.39,2.32c0,.03,0,.07,0,.1-.01,1.31-1.08,2.37-2.39,2.37Zm45.77,0c-1.32,0-2.4-1.07-2.4-2.4s1.07-2.4,2.4-2.4,2.4,1.07,2.4,2.4-1.07,2.4-2.4,2.4Z"/>
    <path class="cls-2" d="m156.03,21.1v-1.26c0-.39-.4-.66-.76-.5l-4.6,1.95c-.33.14-.54.46-.54.82v8.04c0,1.13-.92,2.06-2.05,2.06s-2.04-.92-2.06-2.06c0-.09-.01-.28-.01-.34,0-2.08-.77-3.97-2.04-5.43,0,0-.2-.22-.2-.22-.26-.28-.53-.54-.83-.78l-2.2-2.08h0l-.04-.04-1.74-1.64s0,0,0,0l-.06-.05c-.21-.2-.49-.31-.78-.31h-6.44c-.42,0-.63.51-.33.8l1.97,1.97h0l.48.48c-.5.27-.97.59-1.4.95-1.44-1.21-3.3-1.94-5.32-1.94-4.52,0-8.19,3.63-8.28,8.12,0,0,0,.51,0,.51,0,1.13-.92,2.06-2.06,2.06s-2.06-.92-2.06-2.06v-10.3c0-.39-.4-.66-.77-.51l-4.61,1.96c-.33.14-.55.46-.55.82v13.47c0,.86-.19,1.72-.56,2.5l-3.09,6.59c-.14.29-.01.65.28.78l4.27,2c.29.14.65.01.78-.28l3.09-6.59c.42-.91.72-1.86.9-2.84.48.15.98.25,1.5.3,2.25.22,4.33-.51,5.9-1.83,1.43,1.17,3.25,1.87,5.24,1.87s3.88-.73,5.32-1.94c1.44,1.21,3.3,1.94,5.32,1.94s3.96-.77,5.41-2.02c1.15.97,2.57,1.83,4.16,1.99,4.74.46,8.75-3.27,8.75-7.92v-9.05s0,0,0,0Zm-26.6,8.98c-.13,1.19-1.14,2.13-2.37,2.13-1.32,0-2.4-1.07-2.4-2.4s1.07-2.4,2.4-2.4c1.23,0,2.23.93,2.37,2.13,0,.09-.01.18-.01.27s.01.18.01.27Zm8.28,2.13c-1.23,0-2.23-.93-2.37-2.13,0-.09.01-.18.01-.27s-.01-.18-.01-.27c.13-1.19,1.14-2.13,2.37-2.13,1.32,0,2.4,1.07,2.4,2.4s-1.07,2.4-2.4,2.4Z"/>
    <path class="cls-2" d="m104.32,4.91c0-.39-.4-.66-.76-.5l-4.59,1.95c-.33.14-.54.46-.54.82v30.32c0,.33.26.59.59.59h4.72c.33,0,.59-.26.59-.59V5.7s0,0,0,0v-.79Z"/>
    <path class="cls-2" d="m94.66,19.85c0-.39-.4-.66-.76-.51l-4.61,1.96c-.33.14-.55.47-.55.82v11.38c0,.32-.02.66-.06,1l-.12.69c-.04.21-.09.41-.14.6-.45,1.55-1.32,2.91-2.56,3.96l-.13.1c-.09.07-.19.14-.28.21-.15.1-.29.21-.48.32-.99.6-2.14.97-3.34,1.08h-.18c-.3.03-.58.03-.88.01h-.2c-1.17-.12-2.31-.49-3.35-1.11-.15-.09-.3-.2-.44-.3-.1-.07-.19-.14-.29-.22l-.15-.12c-1.2-1.02-2.08-2.38-2.52-3.92-.05-.2-.11-.41-.14-.62l-.1-.53c-.06-.39-.09-.78-.09-1.15v-11.38c0-.36-.22-.68-.55-.82l-4.61-1.96c-.36-.15-.76.11-.76.51v13.55c0,.66.05,1.33.15,2h-.01s.15.84.15.84c.78,4.3,3.62,7.99,7.66,9.9.29.13.58.25.87.36l.12.05c.1.04.21.08.32.12.11.04.23.07.34.11l.13.04c.96.3,1.95.48,3.04.56.07,0,.15.01.21.02h.11c.06.01.11.01.16.01.08,0,.15,0,.23,0h.17s.18,0,.18,0c.13,0,.26,0,.49,0,.07,0,.15-.01.31-.03,1-.07,1.99-.26,2.94-.55l.14-.04c.11-.03.23-.07.34-.11.11-.04.22-.08.33-.13l.1-.04c.3-.11.59-.23.94-.4,3.97-1.87,6.81-6.15,7.59-10.45l.14-.84h0c.1-.67.15-1.34.15-2v-11.95h0v-1.01Z"/>
  </g>
</svg>